<?xml version="1.0" standalone="no"?>
<!DOCTYPE svg PUBLIC "-//W3C//DTD SVG 20010904//EN"
 "http://www.w3.org/TR/2001/REC-SVG-20010904/DTD/svg10.dtd">
<svg version="1.0" xmlns="http://www.w3.org/2000/svg"
 width="700.000000pt" height="700.000000pt" viewBox="0 0 700.000000 700.000000"
 preserveAspectRatio="xMidYMid meet">
<metadata>
Created by potrace 1.11, written by Peter Selinger 2001-2013
</metadata>
<g transform="translate(0.000000,700.000000) scale(0.100000,-0.100000)"
fill="#000000" stroke="none">
<path d="M700 6989 c-317 -53 -575 -294 -673 -629 l-22 -75 -3 -2735 c-2
-1950 0 -2757 8 -2813 48 -338 288 -614 617 -709 l78 -23 2795 0 2795 0 78 23
c328 95 569 372 617 709 8 56 10 863 8 2813 l-3 2735 -21 70 c-51 171 -122
293 -234 405 -117 117 -285 203 -450 229 -83 14 -5509 13 -5590 0z m1975
-1136 c149 -29 323 -101 450 -186 230 -155 375 -386 379 -604 2 -119 0 -120
-156 -106 -260 24 -477 123 -654 297 -123 122 -197 254 -231 411 -17 83 -14
192 8 206 16 11 90 4 204 -18z m375 -1035 c47 -11 161 -49 254 -85 l170 -65
160 61 c223 83 300 102 436 108 373 16 702 -148 909 -453 247 -366 266 -948
50 -1543 -134 -368 -438 -814 -649 -950 -92 -60 -149 -76 -260 -75 -110 1
-181 17 -324 75 -152 62 -182 70 -291 76 -123 6 -191 -8 -363 -77 -121 -49
-251 -80 -336 -80 -58 0 -150 25 -210 58 -162 87 -433 433 -586 747 -308 631
-333 1310 -64 1743 60 96 193 236 282 295 168 112 299 158 547 191 56 8 190
-5 275 -26z"/>
</g>
</svg>
