<svg id="Слой_1" xmlns="http://www.w3.org/2000/svg" viewBox="0 0 1440 265.1"><style>.st0{opacity:.5}.st1,.st2{fill:#75ac6c}.st2{opacity:.29;enable-background:new}.st3,.st4{opacity:.52}.st4,.st5,.st6{fill:#fff;enable-background:new}.st5{opacity:.33}.st6{opacity:.5}</style><g class="st0"><path class="st1" d="M950.6 22.8h-75.5V266h75.5V22.8z"/><path class="st1" d="M956.2 24.2h-86.8v2.5h86.8v-2.5zm-2.3 34.2h-82.1v2.5h82.1v-2.5zm0 33.1h-82.1v2.4h82.1v-2.4zm0 33.1h-82.1v2.4h82.1v-2.4zm0 33h-82.1v2.4h82.1v-2.4zm0 33.1h-82.1v2.4h82.1v-2.4zm0 33.1h-82.1v2.5h82.1v-2.5zm5.2-206.3h-92.5v6.7h92.5v-6.7z"/><path class="st2" d="M889.7 34.7h-7.9v19.4h7.9V34.7z"/><path class="st1" d="M907.3 34.7h-7.8v19.4h7.8V34.7zm17.5 0H917v19.4h7.8V34.7zm17.5 0h-7.8v19.4h7.8V34.7zm-52.6 31.7h-7.9v19.4h7.9V66.4z"/><path class="st2" d="M907.3 66.4h-7.8v19.4h7.8V66.4z"/><path class="st1" d="M924.8 66.4H917v19.4h7.8V66.4zm17.5 0h-7.8v19.4h7.8V66.4zm-52.6 33.1h-7.9V119h7.9V99.5zm17.6 0h-7.8V119h7.8V99.5zm17.5 0H917V119h7.8V99.5z"/><path class="st2" d="M942.3 99.5h-7.8V119h7.8V99.5z"/><path class="st1" d="M889.7 132.6h-7.9V152h7.9v-19.4z"/><path class="st2" d="M907.3 132.6h-7.8V152h7.8v-19.4zm17.5 0H917V152h7.8v-19.4z"/><path class="st1" d="M942.3 132.6h-7.8V152h7.8v-19.4z"/><path class="st2" d="M889.7 165.7h-7.9v19.4h7.9v-19.4z"/><path class="st1" d="M907.3 165.7h-7.8v19.4h7.8v-19.4zm17.5 0H917v19.4h7.8v-19.4zm17.5 0h-7.8v19.4h7.8v-19.4zm-52.6 33.1h-7.9v19.4h7.9v-19.4zm17.6 0h-7.8v19.4h7.8v-19.4z"/><path class="st2" d="M924.8 198.8H917v19.4h7.8v-19.4z"/><path class="st1" d="M942.3 198.8h-7.8v19.4h7.8v-19.4zm-52.6 33.1h-7.9v19.4h7.9v-19.4z"/><path class="st2" d="M907.3 231.9h-7.8v19.4h7.8v-19.4z"/><path class="st1" d="M924.8 231.9H917v19.4h7.8v-19.4z"/><path class="st2" d="M942.3 231.9h-7.8v19.4h7.8v-19.4z"/><path class="st1" d="M905.5 8.2h-25.7v12.6h25.7V8.2z"/><path class="st1" d="M907.3 7.9h-29.2V10h29.2V7.9zM766.9 266H666.3V34.9l100.6-24.6V266z"/><path class="st1" d="M670.7 30.8h-8.8V266h8.8V30.8zm25.2-6.6H687V266h8.8V24.2zm25.1-6.9h-8.8V266h8.8V17.3zm25.2-5.6h-8.8V266h8.8V11.7zm25.1-5.9h-8.8V266h8.8V5.8z"/><path class="st2" d="M684.8 50.6H673v17.9h11.7V50.6zm25.1 0h-11.7v17.9h11.7V50.6z"/><path class="st1" d="M735 50.6h-11.7v17.9H735V50.6z"/><path class="st2" d="M760.2 50.6h-11.7v17.9h11.7V50.6z"/><path class="st1" d="M684.8 81.7H673v17.9h11.7V81.7zm25.1 0h-11.7v17.9h11.7V81.7z"/><path class="st2" d="M735 81.7h-11.7v17.9H735V81.7zm25.2 0h-11.7v17.9h11.7V81.7zm-75.4 31.1H673v17.9h11.7v-17.9zm25.1 0h-11.7v17.9h11.7v-17.9zm25.1 0h-11.7v17.9H735v-17.9z"/><path class="st1" d="M760.2 112.8h-11.7v17.9h11.7v-17.9z"/><path class="st2" d="M684.8 143.9H673v17.9h11.7v-17.9z"/><path class="st1" d="M709.9 143.9h-11.7v17.9h11.7v-17.9z"/><path class="st2" d="M735 143.9h-11.7v17.9H735v-17.9zm25.2 0h-11.7v17.9h11.7v-17.9zM684.8 175H673v17.9h11.7V175zm25.1 0h-11.7v17.9h11.7V175z"/><path class="st1" d="M735 175h-11.7v17.9H735V175z"/><path class="st2" d="M760.2 175h-11.7v17.9h11.7V175z"/><path class="st1" d="M684.8 206.1H673V224h11.7v-17.9zm25.1 0h-11.7V224h11.7v-17.9z"/><path class="st2" d="M735 206.1h-11.7V224H735v-17.9zm25.2 0h-11.7V224h11.7v-17.9zm-75.4 31.1H673V255h11.7v-17.8z"/><path class="st1" d="M709.9 237.2h-11.7V255h11.7v-17.8z"/><path class="st2" d="M735 237.2h-11.7V255H735v-17.8z"/><path class="st1" d="M760.2 237.2h-11.7V255h11.7v-17.8zM379.5 46v2.4h-2.4v6.8h42.1V266h-69V48.4h-2.5V46h31.8zm176.8 95.7h-59.1V266h59.1V141.7zm-268.9-28.5h-48.1V266h48.1V113.2z"/><path class="st1" d="M330.3 145.1h-52.4V266h52.4V145.1zm-52.4-38h-21.3v18.3h21.3v-18.3z"/><path class="st1" d="M337.3 143.1h-55.8v4.5h55.8v-4.5zm46.1 53.8h-58.7V266h58.7v-69.1zm-200.8-56.1h-47.8V266h47.8V140.8z"/><path class="st1" d="M156.2 203.2H93.4V266h62.8v-62.8zm-92.7-10.3H24.2V266h39.3v-73.1z"/><path class="st1" d="M148.8 243.1h-93V266h92.9v-22.9zm-112.6-7.4h-47.6V266h47.6v-30.3zm220.4-15.9h-74V266h74v-46.2zm258.5 26.3H399.8V266h115.3v-19.9zm204.5 0H604.3V266h115.3v-19.9z"/><path class="st1" d="M510.6 187.6h-43.8L448.3 256h62.4v-68.4zm21.5-99.5h-1.2V164h1.2V88.1zm6.5 25.7H537v44.8h1.6v-44.8z"/><path class="st1" d="M550.4 121.7h-22.2v22.2h22.2v-22.2z"/><path class="st1" d="M553.9 120h-29.4v2h29.4v-2zm63.2 81.9h-71.7V266h71.7v-64.1z"/><path class="st1" d="M649.5 131.3h-46V255h46V131.3zm207.3 23.3h-73.5V266h73.5V154.6z"/><path class="st1" d="M844 225h-83.9v41H844v-41zm63.3 26.3h-54.5V266h54.5v-14.7zm118.1-26.3h-88.7v41h88.7v-41z"/><path class="st1" d="M972 266h110.3V117.5H972V266zm-2.8-148.5h119.6v-5.7H969.2v5.7z"/><path class="st1" d="M1029 126.4h48.5V96.3H1029v30.1zm-24-11.8h8.1V96.3h-8.1v18.3zm-17.1 0h9V96.3h-9v18.3zM1158.2 266h87.3V49.1h-87.3V266z"/><path class="st1" d="M1155.7 51.5h92.3v-6.1h-92.3v6.1z"/><path class="st1" d="M1161.1 66.6h81.5V37.5h-81.5v29.1z"/><path class="st1" d="M1204.1 57.4h32.3V25.6h-32.3v31.8z"/><path class="st1" d="M1217.7 34.5h18.7V17.8H1223l-5.3 16.7z"/><path class="st1" d="M1227 41.2h1.8V3.9h-1.8v37.3zm-.7-39.3c0 1.1.7 1.9 1.6 1.9.9 0 1.6-.9 1.6-1.9 0-1.1-.7-1.9-1.6-1.9-.9 0-1.6.9-1.6 1.9zm46.4 174.5h-39.1V266h39.1v-89.6zm-105.9-43.6h-44.6V266h44.6V132.8z"/><path class="st1" d="M1144.6 266h-62.8v-71.3l53 23.5 9.8 47.8zm211.1-38.7h-95.9V266h95.9v-38.7z"/><path class="st1" d="M1376 111.5h-55.7V266h55.7V111.5z"/><path class="st1" d="M1455.2 237.2H1363V266h92.3v-28.8zm-76.7-128.5h-61.1v5.1h61.1v-5.1z"/><path class="st1" d="M1368.5 86.9h-1.2V118h1.2V86.9zm-8.1 3.9h-1.2v25h1.2v-25zm36.2 78.9h-24.8v70.8h35.4l-10.6-70.8z"/></g><g class="st3"><path class="st4" d="M248 121h-3.6v3.6h3.6V121zm7.3 0h-3.6v3.6h3.6V121zm-7.3 8.5h-3.6v3.6h3.6v-3.6zm7.3 0h-3.6v3.6h3.6v-3.6zm-7.3 8.3h-3.6v3.6h3.6v-3.6zm15.4-16.8h-3.6v3.6h3.6V121z"/></g><path class="st5" d="M681.8 45.8H676v14.9h5.9V45.8zm0 28.4H676v14.9h5.9V74.2zm0 28.5H676v14.9h5.9v-14.9zm0 28.4H676V146h5.9v-14.9zm0 26.8H676v14.9h5.9v-14.9zm0 28.5H676v14.9h5.9v-14.9zM707 45.8h-5.9v14.9h5.9V45.8zm0 28.4h-5.9v14.9h5.9V74.2zm0 28.5h-5.9v14.9h5.9v-14.9zm0 28.4h-5.9V146h5.9v-14.9zm0 26.8h-5.9v14.9h5.9v-14.9zm0 28.5h-5.9v14.9h5.9v-14.9zm25.1-140.6h-5.9v14.9h5.9V45.8zm0 28.4h-5.9v14.9h5.9V74.2zm0 28.5h-5.9v14.9h5.9v-14.9zm0 28.4h-5.9V146h5.9v-14.9zm0 26.8h-5.9v14.9h5.9v-14.9zm0 28.5h-5.9v14.9h5.9v-14.9zm25.1-140.6h-5.9v14.9h5.9V45.8zm0 28.4h-5.9v14.9h5.9V74.2zm0 28.5h-5.9v14.9h5.9v-14.9zm0 28.4h-5.9V146h5.9v-14.9zm0 26.8h-5.9v14.9h5.9v-14.9zm0 28.5h-5.9v14.9h5.9v-14.9z"/><path class="st6" d="M869 61.7h-4.8v18.5h4.8V61.7z"/><path class="st5" d="M1170.5 65.5h-3.7v10.4h3.7V65.5zm11.4 0h-3.7v10.4h3.7V65.5z"/><path class="st5" d="M1170.5 65.5h-3.7v10.4h3.7V65.5zm11.4 0h-3.7v10.4h3.7V65.5zm10.8 0h-3.6v10.4h3.6V65.5zm11.5 0h-3.7v10.4h3.7V65.5zm-33.7 18.7h-3.7v10.4h3.7V84.2zm11.4 0h-3.7v10.4h3.7V84.2z"/><path class="st5" d="M1170.5 84.2h-3.7v10.4h3.7V84.2zm11.4 0h-3.7v10.4h3.7V84.2zm10.8 0h-3.6v10.4h3.6V84.2zm11.5 0h-3.7v10.4h3.7V84.2zm-33.7 19.8h-3.7v10.4h3.7V104zm11.4 0h-3.7v10.4h3.7V104z"/><path class="st5" d="M1170.5 104h-3.7v10.4h3.7V104zm11.4 0h-3.7v10.4h3.7V104zm10.8 0h-3.6v10.4h3.6V104zm11.5 0h-3.7v10.4h3.7V104zm12.5-38.5h-3.7v10.4h3.7V65.5zm0 18.7h-3.7v10.4h3.7V84.2zm11.4-18.7h-3.7v10.4h3.7V65.5zM885.8 34.7h-3.9v16.2h3.9V34.7zm19.5 0h-3.9v16.2h3.9V34.7zm19.5 0h-3.9v16.2h3.9V34.7zm19.5 0h-3.9v16.2h3.9V34.7zm-58.5 33.4h-3.9v16.2h3.9V68.1zm19.5 0h-3.9v16.2h3.9V68.1zm19.5 0h-3.9v16.2h3.9V68.1zm19.5 0h-3.9v16.2h3.9V68.1zm-58.5 34.2h-3.9v16.2h3.9v-16.2zm19.5 0h-3.9v16.2h3.9v-16.2zm19.5 0h-3.9v16.2h3.9v-16.2zm19.5 0h-3.9v16.2h3.9v-16.2zm-58.5 34.2h-3.9v16.2h3.9v-16.2zm19.5 0h-3.9v16.2h3.9v-16.2zm19.5 0h-3.9v16.2h3.9v-16.2zm19.5 0h-3.9v16.2h3.9v-16.2zm-58.5 31h-3.9v16.2h3.9v-16.2zm19.5 0h-3.9v16.2h3.9v-16.2zm19.5 0h-3.9v16.2h3.9v-16.2zm-39 34.7h-3.9v16.2h3.9v-16.2zm19.5 0h-3.9v16.2h3.9v-16.2zm19.5 0h-3.9v16.2h3.9v-16.2zm19.5-34.7h-3.9v16.2h3.9v-16.2zm384.9-47.1h-4v9.3h4v-9.3zm0 15h-4v9.3h4v-9.3zm10.3-15h-4v9.3h4v-9.3z"/></svg>