<svg id="Слой_1" xmlns="http://www.w3.org/2000/svg" xmlns:xlink="http://www.w3.org/1999/xlink" viewBox="0 0 83 86"><style>.st0{fill:#75ac6c}.st1{clip-path:url(#SVGID_2_)}.st2{fill:#fff}</style><path class="st0" d="M10 0h63c5.5 0 10 4.5 10 10v30c0 5.5-4.5 10-10 10H10C4.5 50 0 45.5 0 40V10C0 4.5 4.5 0 10 0zm32 86V50h36-1.6C63.9 50.3 42 57.7 42 86zM6 50h36v36-1.6C41.7 71.9 34.3 50 6 50z"/><defs><path id="SVGID_1_" d="M9 13h66v25H9z"/></defs><clipPath id="SVGID_2_"><use xlink:href="#SVGID_1_" overflow="visible"/></clipPath><g class="st1"><path class="st2" d="M31.6 14.8c-.6.1-1 .5-1 .9.2 1.7.4 3.4.6 5 .1.5.5.8 1.1.7 1.6-.2 3.3-.3 4.9-.4-.1-1.3-.1-2.6-.2-3.9-.8 0-1.7.1-2.5.2l.2 2.3c-.3 0-.7.1-1 .1-.1-1.1-.2-2.2-.3-3.4 1-.1 2.1-.2 3.1-.2.1-.3.2-.6.4-.9v-.8c-1.9.1-3.6.2-5.3.4zm8.8 4.4V21h2.4v-1.8c.6-1.4 1.3-2.7 2-4.1v-.8h-2.6c-.2.9-.4 1.8-.6 2.6h-.2c-.2-.9-.4-1.7-.7-2.6-.9 0-1.7 0-2.6.1v.8c.9 1.3 1.6 2.6 2.3 4zm8.3 2c.7 0 1.4.1 2 .1.3-1.1.6-2.1.9-3.2h.2c-.1 1.1-.2 2.2-.3 3.2.8.1 1.6.1 2.4.2 0-.3.1-.6.1-.8 0-2-.1-4-.2-6-1-.1-2-.2-2.9-.3-.3.9-.6 1.7-.8 2.6h-.2c-.1-.9-.3-1.8-.5-2.7-1-.1-1.9-.1-2.9-.1-.4 2-.7 3.9-1 5.9v.8c.8 0 1.6.1 2.4.1 0-1 .1-2 .1-3.1h.2c.2 1.1.3 2.2.5 3.3zM34.5 33.3c.5 0 1-.1 1.6-.1.1-.9.2-1.9.3-2.8h.2l.2 2.8c.6 0 1.2-.1 1.8-.1v-.7l-.9-5.1c-.7 0-1.5.1-2.2.1-.1.8-.2 1.6-.3 2.3h-.1c-.2-.8-.4-1.5-.7-2.2-.7.1-1.5.1-2.2.2 0 1.7-.1 3.4-.1 5.1l.1.7c.6-.1 1.2-.1 1.8-.2-.1-.9-.2-1.9-.3-2.8h.1c.2 1 .5 1.9.7 2.8zm8.9-.3v-1.5h-2.2v-.8h1.9v-1.5h-1.9v-.6h1.9c.1-.2.2-.5.3-.7v-.7h-4.2c.1 1.9.1 3.9.2 5.8h4zm3-2.6c.1-.6.2-1.1.3-1.7h.2c0 .6.1 1.2.1 1.7h-.6zm-1.2-3.2c-.3 1.7-.7 3.4-1 5.1v.7c.6 0 1.2 0 1.9.1.1-.4.1-.8.2-1.2h.8v1.2c.6 0 1.2.1 1.9.1l.1-.7c-.2-1.7-.3-3.4-.5-5.1-1.2-.1-2.3-.2-3.4-.2zm4.7 6.1c1.2.1 2.5.2 3.7.4l.2-1.4c-.6-.1-1.3-.2-1.9-.2l.5-4.3c-.7-.1-1.3-.1-2-.2-.2 1.8-.4 3.7-.5 5.7zm-21-20c.1.1 0 .3-.2.4-.2.1-1.1.4-.9 1.2.2.8 1.4 1.3 1.2 2.1-.2.8.1 1.8.1 1.8s-1.1-.7-1.1-1.5-.5.7-.5.7c-.1-.1-.2-.2-.3-.4-.1-.2-.1-.3-.1-.5 0-.5.1-.7.1-.7l-.4.4s0-.6-.3-.2c-.3.3-.7.5-1.1.6-.4 0-.7 0-1-.2 0 0 1.3-.6 1.5-1.2.2-.6 1.6-.6 1.5-.9 0-.2.3-1.8.9-2 .1 0 .2.1.3.2.1.1.2.1.3.2zm-6.5 2.8c-1.4-1.6-4.8 2.2-6.6 6.7-1.7 4.1-2.1 8.8 1.4 10.7 7.2 4 5-7.3 4.6-10.3-.4-3.1 1.5-6.1.6-7.1zm-6.5 7.4c1-2.5 2.5-4.8 4.3-6.8l.3-.3-.3.3c-.5.6-1.8 2.1-3.6 5.7-2.6 5-1.1 8.7-1.1 8.7s-1.4-3.1.4-7.6zm2.2 7.1c-.1 1.4-1.8.9-2.3-.3-.1-.3.4-1 1-1.7.7-.7 1.4.6 1.3 2zm2.8.1c-.3 3.2-2.4 2.2-2.4 2.2s1.7.7 2.1-2.3c.4-2.9-1.3-7.4-.3-9.7l.1-.2c.3-1.2.8-2.3 1.4-3.3 0 0-.5 1.2-1.4 3.3-.1.5-.2 1-.2 1.5-.2 2.2 1 5.3.7 8.5z"/><path class="st2" d="M16.9 29.4c-.4.5-.6 2 .5 1.3.5-.4-.1-1.8-.5-1.3zm11.7-5.8s5.8-1.3 13.8-1.3c7.9 0 13.4 1.3 13.4 1.3l.6 1.5c.2.5.3 1.1.4 1.6 0 0-6.2-1.3-14.4-1.3-8 0-13.3 1.3-13.3 1.3-.2-.5-.3-1.1-.4-1.7-.1-.7-.1-1.4-.1-1.4zm41.9-2.2c-.1.3-.1 1.1.9 1.2 1 .1 2.4-1.6 2.2-1.8-.9-1.4-2.7 1.1-2 1.3-.2-.1-1-1-1.1-.7z"/><path class="st2" d="M70.5 21.4c-.1.3-.1 1.1.9 1.2 1 .1 2.4-1.6 2.2-1.8-.9-1.4-2.7 1.1-2 1.3-.2-.1-1-1-1.1-.7zM14 22.6s.7-.6.3-1-1.1 0-1.1 0-.1-.9-.8-1c-.7-.1-.8.7-.8.7s-.4-.8-1.1-.4c-.7.5-.2 1.1-.2 1.1s-1-.3-1.3.5c-.3.8.8 1.2.8 1.2s-.8.8-.2 1.5c.5.8 1.5.1 1.5.1.3.5.6 1 .8 1.5.2.7-.9 2.4.7 2.4 1.7-.1.4-2.7.2-3.9-.2-1.2.6-1.2.6-1.2s1 .4 1.2-.4v-.3c0-.1 0-.2-.1-.3-.1-.1-.1-.2-.2-.3-.1-.1-.2-.2-.3-.2zM11.1 25c-.6-.4.5-1.3.5-1.3 0 .3.1.6.1.8 0 .2 0 .4.1.6 0 0-.2.2-.7-.1zm1.5-.6c-.1.1-.1.3-.1.5-.3-.7-.4-1.2.1-1.3.4-.2.2.4 0 .8zm62.1-.6c-.8-1.3-2.7-.5-3.1-.5s-1.6-.9-2.9.1c-1.3 1-.4 6 2.9 5.8 3.1-.4 3.9-4.2 3.1-5.4zm-1 3.4s.4-2-.1-2.5-.6-1.2-.2-1.1c0 0 1 0 1 1.2.1 1.1-.7 2.4-.7 2.4zM60 30.7c-.2-2 1.3-7 1.3-10.4 0-3.3-3-7.3-3.3-7.2-.3.1-3.9 4.3-1.9 9.4 1.8 4.7 2.4 8.3 1.5 10-.9 1.7-2 4.8-1.8 4.8.2.1 3.7-1.8 4.5-1.2.8.6 1.2 1.8 1.5 1.8.3.1-1.6-5.2-1.8-7.2zm-2.9-13.6c-.9 0-.4-1.1 0-1.1s.9 1.1 0 1.1zm10.7-.5c-.1 0-1 .2-1.3.2-.3 0-.3-.3-.3-.4 0-.1-.2-.9-.2-.9s-.1-.3-.2-.3-.3.3-.4.6c-.1.4-.3.7-.4 1-.1.2-.2.1-.3.1-.1 0-.9-.4-.9-.4s-.3-.2-.2.2c.2.6.5 1.2.8 1.7.4.8.4 1 .5 1.1 0 .1 0 .1-.1.1-.5.1-1.1.1-1.6.3h-.1l-.1.1-.1.1v.8c.1-.1.2-.1.3-.1.1 0 .2 0 .3.1l-.7.1c0 .7-.1 1.7-.1 3.2h.1c.4-.2.9.1.9.1h-.6c-.1 0-.3.1-.4.1v2.7c0 2.1.3 7.2.7 7.2.4 0 1.5-3.7 2.5-7.1l-.4-.1c.1-.1.3-.1.4-.1.2-.6.3-1.1.5-1.7.6-2 .8-3.2 1-3.9-.2-.1-.5-.2-.7-.3-.3-.1-.6-.1-.9-.1 0 0 .9-.2 1.2-.1.2.1.3.2.4.4.1-.5.1-.7.1-.8 0-.2 0-.3-.2-.4-.1-.1-1.3-.6-1.3-.6-.1 0-.1-.1-.2-.1-.1-.1-.1-.1 0-.2s.4-.5 1.1-1.2c.4-.4.7-.8 1-1.3.3-.1.1-.1-.1-.1zm-4.1 5.2c.2-.2.5-.3.8-.3.3 0 .7.1 1 .2-.3 0-.6-.1-.8 0-.4 0-.7.1-1 .1zm.6 6.3c-.2-.1-.3-.1-.5-.1s-.4 0-.7.1c.7-.5 1.2 0 1.2 0zm-1.2 1.7c.2-.1.4-.2.6-.2.2 0 .4 0 .6.1h-.5c-.3 0-.5 0-.7.1zm.8 2.4h-.3s.2-.3.4-.2c.1.1.2.1.3.2h-.4zm.4-1.8H64s.5-.1.6.2c-.1-.1-.2-.2-.3-.2zm.2-4.2h-1c1.3-.6 1.7.2 1.7.2-.1-.1-.4-.2-.7-.2zm1.1-1.7h-.8s.7-.2 1.1-.1c.1 0 .2.1.3.1l.2.2c-.3-.1-.5-.2-.8-.2zm.7-1.4c-.3-.1-.5-.2-.8-.2-.3-.1-.6-.1-1-.1 0 0 .7-.2 1.1-.1.3.1.6.2.7.4zm-38.1 3.5c-.8-4.8-.4-6.7.2-8.2-.2-.2-.4-.6-.4-.9-.1.2-.2.4-.2.6l-.1.2-.2-.1c-.2-.1-.3-.3-.4-.4-.1-.2-.1-.4-.2-.6V17l-.3.3v-.5c-.3.3-.7.5-1.1.6h-.1c-.6 1.1-1.2 2.6-1.6 4.6-1.1 5-.9 10.3.9 13.6 1.8 3.3 4.3 2.2 5.5.3 1-1.9-1.2-4.5-2-9.3z"/></g></svg>