<svg width="60" height="60" viewBox="0 0 60 60" fill="none" xmlns="http://www.w3.org/2000/svg"><path d="M18.012 39.505h33.06c3.749 0 6.807-3.058 6.807-6.806V18.641c0-.025 0-.05-.012-.074 0-.025-.012-.062-.012-.086 0-.025-.013-.05-.013-.074-.012-.025-.012-.05-.024-.087-.013-.024-.013-.049-.025-.074-.012-.024-.012-.049-.025-.074-.012-.024-.025-.049-.037-.086a.267.267 0 0 0-.037-.062l-.037-.074c-.012-.024-.024-.037-.037-.061-.012-.025-.037-.05-.05-.074-.011-.025-.024-.037-.048-.062-.013-.024-.038-.037-.05-.061-.012-.025-.037-.038-.05-.062-.011-.025-.036-.037-.048-.05l-.062-.061c-.025-.012-.037-.037-.062-.05-.024-.012-.05-.037-.074-.049-.024-.012-.037-.025-.061-.037a.259.259 0 0 1-.074-.05 25.51 25.51 0 0 0-.148-.073l-.074-.037c-.025-.012-.05-.012-.074-.025a.228.228 0 0 0-.087-.024c-.024 0-.049-.013-.061-.013-.037-.012-.062-.012-.099-.012-.012 0-.025-.012-.05-.012l-41.9-5.784V5.508c0-.061 0-.123-.013-.172 0-.013 0-.025-.012-.05 0-.037-.013-.074-.013-.11-.012-.038-.012-.062-.024-.1 0-.024-.013-.036-.013-.061l-.037-.111c0-.012-.012-.037-.012-.05a.367.367 0 0 0-.05-.098c-.012-.012-.012-.037-.024-.05a.244.244 0 0 0-.05-.073c-.012-.025-.024-.037-.037-.062-.012-.025-.024-.037-.037-.062-.012-.024-.037-.049-.049-.074l-.037-.037-.074-.074a12.905 12.905 0 0 0-.037-.037.533.533 0 0 0-.086-.074c-.012-.012-.037-.024-.05-.037-.024-.024-.049-.037-.073-.061a.87.87 0 0 0-.1-.062c-.011-.012-.024-.012-.036-.025-.05-.024-.111-.049-.16-.074L4.436.132a1.663 1.663 0 0 0-2.183.888c-.358.85.037 1.825.888 2.182l8.064 3.404V43.08c0 3.453 2.59 6.314 5.932 6.746a6.726 6.726 0 0 0-.962 3.452c0 3.712 3.021 6.721 6.72 6.721 3.7 0 6.72-3.021 6.72-6.72a6.593 6.593 0 0 0-.924-3.392h14.97a6.627 6.627 0 0 0-.925 3.391c0 3.712 3.022 6.721 6.72 6.721 3.7 0 6.721-3.021 6.721-6.72 0-3.7-3.02-6.721-6.72-6.721H18.012a3.481 3.481 0 0 1-3.477-3.477v-4.514a6.884 6.884 0 0 0 3.477.937zM26.3 53.267a3.397 3.397 0 0 1-3.391 3.391 3.405 3.405 0 0 1-3.391-3.39 3.405 3.405 0 0 1 3.39-3.392 3.397 3.397 0 0 1 3.392 3.391zm26.561 0a3.397 3.397 0 0 1-3.39 3.391 3.405 3.405 0 0 1-3.392-3.39 3.405 3.405 0 0 1 3.391-3.392 3.397 3.397 0 0 1 3.391 3.391zm-1.788-17.091h-33.06a3.481 3.481 0 0 1-3.477-3.477V14.707L54.55 20.22v12.467a3.484 3.484 0 0 1-3.478 3.49z" fill="#fff"/></svg>